M48
;Layer_Color=9474304
;FILE_FORMAT=4:4
METRIC,LZ
;TYPE=PLATED
T01F00S00C0.2032
T02F00S00C0.2540
T04F00S00C0.8000
T05F00S00C1.0000
T07F00S00C1.1000
T08F00S00C1.6000
;TYPE=NON_PLATED
T09F00S00C0.6000
T11F00S00C1.1000
T12F00S00C1.6000
%
T01
X0094615Y01065784
X00945896Y01073912
Y0108204
X0094615Y01090422
X00945896Y01098042
Y01105408
Y01114044
X0094615Y01122172
X00946132Y01130536
X00945642Y01138174
X00945896Y01147064
X00945388Y01154305
X00939116Y01157859
X00939314Y01163953
X0094615Y01170178
X00945896Y01179068
X00946404Y01186942
X00963108Y01186434
X00963168Y0117856
Y01170178
X00972566Y01179068
X00972331Y01186688
X00994096Y01185926
X00994156Y01178306
Y0116967
Y01161796
Y01154176
Y01145286
X0099441Y0113792
X01003046Y01138174
X010033Y01146048
Y0115443
X01003046Y0116205
Y01170178
Y01178052
Y0118618
X01020197Y01186624
X01020318Y01179128
X01020064Y01170432
X01020318Y01162558
X01021842Y01141984
X01020318Y011303
X01020064Y01114044
X01019556Y01106932
X0101967Y01098998
X01020064Y01090168
X0101981Y01082294
Y01074166
Y0106553
X0100711Y01063752
X01003046Y01074166
X010033Y01082548
Y01090422
X01003046Y01098296
X010033Y0110617
X01003046Y01114044
X010033Y0112268
X0099441
Y01113049
Y0110617
Y0109855
Y0108966
X00992378Y01082294
X00994156Y01074166
X0099314Y01065276
X0097282
X00972354Y01073912
X00972312Y01081532
Y01089402
Y01098042
Y01105662
Y01114122
Y0112141
X00963168Y01122426
X00962794Y01130185
X00963168Y01138174
Y01146556
X00972312Y0114173
X00979678
X00962769Y01114448
X00963144Y01105926
X00963168Y01098296
Y01090422
Y01082294
X00963014Y0107442
X00958841Y0106426
X00922274Y01103884
X0093091Y0113284
Y01157732
X0092583Y0118364
X0108457Y01182614
X01094493Y0118291
X01104646Y01183386
X01114806Y01182878
X01124204
X01134618Y01182624
X01143508
X01144529Y01173406
X0114427Y01163066
X01134076Y01163181
X01134177Y01172905
X01134618Y0115316
X01124204Y01152652
X01124172Y0114291
X01124458Y0113284
X01134364Y01133094
X01134618Y01122934
X01144524
X01144518Y01132564
X01144778Y01142746
X01154692Y01142738
X0116459Y01142492
X01173734Y01142746
X01174172Y0113291
X01184172
X01184172Y0114291
X01184172Y0115291
X01174172Y0115291
X01174172Y0116291
X01163828Y01162812
X01154938Y01162558
X01154262Y01153074
X0115443Y01172464
X01164336Y01172718
X0116444Y01183155
X01155288Y01183355
X01174772Y01183132
X01184714
X01185509Y0117266
X01184656Y01162812
X0118427Y0112281
X01184172Y0111291
X01174172
X01164336Y01113028
X01164082Y01122934
X0115443
X01154176Y01112774
X01154172Y0110291
X01144261Y01102868
X01134364
X01134172Y0111291
X01124204Y01113028
Y011218
X01114738Y01122343
X01114552Y01113028
X01114298Y01102868
X01104172Y0110291
X01104138Y01093724
X01124172Y0109291
X0113411Y01092708
X0114427Y01092962
Y01112774
X01164172Y0110291
X01174172
Y0109291
X01184172
X01184172Y0110291
X01184172Y0107291
X01174496Y0107315
X01174172Y0106305
X01164172Y01062973
Y0107291
X0116459Y01082802
X01144172Y0107291
X01134172Y0105291
X0112395Y0104267
X01114172Y0106291
X01094075Y0107291
X01084299Y01052782
X01094172Y0103291
X01104172Y00992909
X01114172Y00962909
X01134172
Y00952909
Y00972909
X01144172
X01135126Y0098298
X01134172Y01002909
X0114427Y01002792
X01163071Y01003171
X01164172Y00992909
X01154172
X01154501Y01012182
Y0102285
X01164082Y01022858
Y01033018
X01154501Y0103301
X01154172Y0104291
X01164172
X01174172
X01184172
Y01053037
X01175169
X01164027
X01174172Y0103291
X01174496Y01022858
X01174172Y0101291
Y01002909
X01184148Y00993394
X01184172Y00982909
X01164172
Y00972909
X01174172Y00962909
X01154172
Y00952909
X01184148Y00951992
Y01032002
X01144524Y01022858
X01134218Y01022319
X01084172Y00952909
X0108204Y01102614
X01087852Y01107226
X01094172Y0113291
X01104392Y0113284
X01104103Y01123477
X01114298Y01132625
X01114552Y01152398
X01105956Y01151414
X01104525Y01143
X0109474Y01152906
X01094478Y0116255
X01104392Y01162558
X01114298Y01162812
X01113984Y01172972
X0109347
X0108458Y01171956
X01084172Y0116291
X01083818Y01143508
X01052322Y01133602
X01174172Y0112291
X01194172
Y0111291
X01204172
X01212088Y0111263
X01205424Y01103819
X01204172Y0109291
X01204468Y01083818
X01204172Y01074086
X01209883Y01063412
X0120479Y01053037
X01194172
Y0104291
Y0103291
X01194172Y0102291
X01194172Y0101291
X01204172
X01204172Y0100291
X01194172Y01002909
X01194172Y0098291
X01204172Y00982909
Y00972909
X01194172Y00962909
X01194562Y00951738
X01224172Y00952909
Y00962909
Y00970878
X01234172Y00972909
Y00982909
Y00992909
X01224172
Y01002909
X01245244Y01003981
X01244346Y00982726
X01244172Y00952909
X01295243Y00953981
X01324172Y00962909
X01334172Y00982909
X01334136Y01003069
X01344172Y01002909
X01344616Y0101346
X0134493Y01023366
X0134632Y01031719
X01346939Y01043103
X01344172Y0105291
X01324356Y01042924
Y01033018
X01334172Y0103291
X01334262Y01022604
X01333754Y01012952
X01324172Y0101291
X01324102Y010033
X01324356Y00993394
X01314172Y00992909
X01284172Y00982909
X01274172Y0101291
X01284172Y0103291
X01294172Y0103291
X01294172Y0105291
X01313942Y0105283
X01314172Y0104291
X01324172Y0106291
X01304172Y0107291
X01274172Y0106291
X01264172Y0104291
X01254252Y0104267
Y0103251
X01234172Y0103291
X0123444Y01052576
X01226231Y01052615
X01234186Y01062736
X01224534Y01072896
X01234186Y01083056
X01234172Y0109291
X01244092Y01082802
X01254172Y0107291
X01244172Y0105291
X01213533Y01043131
X01204602Y01042298
X01206618Y01033022
X01205742Y01022608
X01194428Y01082102
X01194172Y0109291
X01193038Y01103122
X01194172Y0113291
X01194054Y01142492
X01204214Y0114274
X01204172Y0113291
Y0112291
X01224534Y01132198
X0123444Y01142492
X01244172Y0116291
X01224172
Y0117291
X01234172
Y0118291
X01254172
X01274172Y0117291
X01264172Y0115291
X01274572Y01142746
X0129413Y01143
X01294172Y0116291
X01304172Y0118291
X01324172Y0117291
X01324356Y01143
X01336768Y0114291
X01324172Y0112291
X01314172Y0110291
X01334172Y0109291
X01344172Y0111291
X01294172
X01284172Y0109291
X01274172Y0112291
X01244172Y0111291
X01214172Y0115291
X01205484Y01152906
X01204468Y0116332
X01204172Y0117291
X01204172Y0118291
X01194772Y01182873
X0119425Y01162878
X01304172Y0113291
X01355852Y01020318
X01370055Y00884478
X01344172Y01202909
X01324385Y01202747
X01314172Y0120291
X0129413Y0120269
X01294172Y0121291
X01284172Y0119291
X01264172Y0120291
X01246103Y01202603
X01244172Y0119291
X01233832Y01192787
X01233388Y0120261
X01224799Y01202803
X01224172Y0121291
X01204172
X01204172Y0119291
X01194172Y0120291
X01195578Y01232154
X0120142Y0127254
X01216259Y01272139
X012319Y0127127
X01256538Y0127254
X01291336Y01272286
X01318006Y01282954
Y01291844
Y01300734
X01316482Y0125857
X0130429Y0123927
X01334172Y0119291
X01244172Y0121291
X01241805Y01299324
X0123571Y0129921
X0122682
X01220724
X0121158
X01205484
X0119634
X0119025Y01299479
X01187957Y01272624
X01181862Y0127254
X01175766Y01272551
X0116967Y0127254
X01162304Y01242314
X0115951Y0122428
X01156689Y01210393
X01164278Y01203198
X01174383Y01203122
X01184398Y01203008
X01184314Y0119291
X01174172
X0116459Y01192276
X01144707Y01193445
X01134172Y0119291
X01124172
X01104128Y0119297
X01094493Y0119253
X0108458Y01192784
X01084261Y01202625
X01084172Y0121291
X01094493Y01212975
X01104879Y01213417
Y0120291
X01114298Y01203198
X01134174Y01203031
X01136142Y01216152
X01143254
X01134364Y01231138
X0112395Y012319
X01099066Y01230638
X01175117Y01213448
X01020826Y01194562
X00994096Y01193546
X00972372Y01193878
X00963422Y0119507
X0094615
T02
X0158877Y0077343
X0160147
X0161417
X0162687
X0163957
Y0078867
X0162687
X0161417
X0160147
X0158877
X0157645Y00788411
X0156464Y0078867
X01551178
Y0077343
X0156464
X0157645Y00773171
X0136779Y0078994
X0131826Y0077978
X0119761Y0070231
X0114681
X0109728Y0070358
X01096772Y00759206
X01087374Y00759968
X01070864Y00747014
X01055116Y00753872
X01050544Y00769366
X01060704Y00774799
X01064514Y00784606
X01072896Y0077978
X0105664Y00790448
X01004316Y00790702
X0098425Y0072517
X0096901Y0070993
Y0067183
X0098552Y0065532
X0094361Y0065405
X0092837Y0066802
X01122492Y00760584
X0112776Y0079248
X01143
X01112266
X01173226Y00784352
X01165606Y00764032
X0117164Y00809732
X0117348Y008382
X01188466Y00851662
X0116078Y00855472
X01152144Y0085598
X01140714Y00856488
X01122426Y00856234
X0111125Y00856742
X01112012Y00823214
X01112266Y0080772
X0112776
Y0082296
X01143
Y0080772
X01072642Y0079502
X01064006Y00799592
X0105664Y00818642
X01057402Y00838708
X0106553Y00832866
X01064006Y00846582
X01074166Y00854202
X01075436Y00824738
X01034542Y00833374
X01036066Y00854292
X01001522Y0085217
X00992632Y00851916
X00984504
X00971804Y00945642
X01012444
X01053084
X01045972Y00931418
X01035304Y00914146
X010541Y00899668
X0106299Y00889
X0108331Y009017
X01111569Y0093218
X0113665Y0093472
X0113874Y00926592
X0116713Y0092075
X0117983
Y0093345
X0116713
Y0090805
X0117983
X0115062Y009017
X01135126Y00892048
X01067562Y01006094
X010541Y0100584
X0101346
X0097282
X0092964
X00943653Y01044842
X01025144Y0104521
X01069594Y01046226
X01065276Y0103886
X00929894Y00945642
X0119253Y0093345
X0120523
Y0092075
Y0090805
X0119253
Y0092075
X0125857
X0135001Y00915162
X01358203Y00905146
X01358188Y00887426
X01358646Y008763
X01369275Y0086614
X0138938
X01389888Y00875792
X0138938Y0088569
X01379474Y00885698
X01380236Y00876554
X01379695Y00896616
X01379474Y00906018
X0138938Y00905764
X01389634Y00895858
X01401189Y00901336
X01401318Y00911098
X01409766Y00883556
X01402842Y00847344
X01369687Y00895977
X01343152Y00900684
X0130429Y0083566
X0130302Y0080772
X0121158Y0082423
X01191006Y00837692
X01225804Y00855472
X0144907Y0092583
X0144678Y00965158
Y00980398
X0143154
Y00965158
X01462546Y00964683
Y00979923
X01477786
Y00964683
X01493026
Y00979923
X01498106Y00995163
Y01010403
X01493774Y01037082
X0151003Y0103632
X0151003Y01052059
X01524254Y0105283
X0151765Y0106299
X01539494Y01057402
X0153924Y0104775
X0153416Y0103251
X01546098Y01032256
X0155702Y0103251
X01552194Y01058672
Y01070102
X01562354
X0155448Y0108966
X01553464Y01104392
X01554988Y01121664
X01555242Y01130554
X01554734Y01138174
X0155194Y0114554
X01569974Y01150112
X01566164Y01119632
X01572481Y01100582
X01571972Y01008044
X01587212
Y00977563
X01571972
Y00992803
Y00962324
X01587212
X01556732
Y00977563
X01541492
X01526252
Y00962324
X01541492
X0155575Y0093091
X0156464Y0091059
X0157607
X0157645Y00895091
X0157607Y0088011
X0156464
X01551178
Y0086487
Y0084963
X01551865Y00834043
X01551178Y0081915
X0156464
X0157645Y00818891
Y00803651
X0156464Y0080391
X01551178
X01484884Y00914908
X01447306Y00995163
Y01010403
X01469251Y01046341
X01464581Y01056132
X01474232Y01057402
X0148042Y01049833
X01488824Y01060329
X01463294Y01090422
Y01109178
X01464056Y01125728
X0146431Y01136142
X01446276Y01137412
X01445514Y01125982
X014351Y01153414
X01413256Y0114046
Y0113284
X01395222Y01129538
X01395296Y01137016
X01385513Y01139221
X01384046Y01119886
X01404112Y011176
X01422654Y01107948
X0141605Y01099312
X01427734Y01095502
X01416304Y01053715
X01406144Y01167892
Y01181862
X0138811Y0118491
X01470914Y01148842
X01480302Y01149086
X01498981Y01148842
X01516441Y01150277
X01513824Y01160307
X01506728Y0116078
X01509039Y01172127
X01532636Y01167638
X0154559Y01181048
X01614424Y01180592
Y01166622
X0162814Y0115443
X01613017Y0110998
X0161671Y01060958
X0162687Y0103886
X0159004Y0103632
X0161417Y01003808
X01608328Y0094742
X0161417Y0091059
X0162687
X0163957
Y0089535
X0162687
X0161417
X0160147
X0158877
Y0091059
X0160147
Y0088011
X0158877
Y0086487
X0160147
X0161417
X0162687
X0163957
Y0084963
X0162687
X0161417
X0160147
Y0083439
X01613863Y00834534
X0162687Y0083439
X01640257Y00834043
X0163957Y0081915
X0162687
X01613863Y00819294
X01601163
X0158877Y0081915
Y0080391
X0160147
X0161417
X0162687
X0163957
Y0088011
X0162687
X0161417
X0158877Y0083439
X01614424Y01193292
Y01207262
X0162433Y012192
X0159385Y0121811
X01597372Y01277283
Y01292523
Y01307764
Y01323004
X01612612
Y01307764
X0162941Y0127
X0159258Y0136271
X0155448Y0137287
X01551652Y01323004
X01566892
X01582132
Y01307764
Y01292523
X01566892
Y01307764
X01551652
X01536412
Y01323004
Y01292523
X01551652
Y01277283
X01566892
X01582132
X01536412
X01519174Y01273302
X01475452Y01282363
Y01297603
Y01312843
X01460212
Y01297603
X01444972
Y01312843
X01429732
Y01328083
X01414492Y01312843
X01399252
X01384012
Y01297603
X01399252
X01414492
X01429732
X01384012Y01282363
X01383851Y01328083
X0140208Y0136779
X01450594Y01362202
X01475452Y01328083
X01491234Y01331976
Y01308472
Y01236472
X01549654Y01232916
X01561592
X01572514
X0154559Y01206448
Y01193748
X01406144Y01194562
Y01208532
X0136271Y0122428
Y0123571
Y0124587
X0135001
Y0123571
Y0122428
X0133731
Y0123571
Y0124587
X0132461
Y0123571
Y0122428
X0128651Y012319
X01285748Y01257046
X0125603Y0125476
Y012446
Y0123317
X0124333
Y012446
Y0125476
X0123063
Y0123317
X0124968Y0129921
X01261618Y01299718
X01271778
X01281684
X0128651Y0130683
X0127635
X0126619
X0125603
X0129667
X0130683
X0130175Y0130048
X01156462Y01300734
X0114681Y0129667
X0113538Y0129921
X0112649
X0112141Y0130556
X0110998Y0131826
X0108458Y0131572
X0107442
X0104267Y0132588
X0101473Y0131572
X0099949Y0131699
X0102616Y0129286
X0109855Y0128778
T04
X0138613Y0078994
X0142113
T05
X0094347Y0066838
X0096847Y0065588
Y0072588
X0094347Y0071338
T07
X016123Y0070104
X015373
T08
X01197Y0068072
X01247
X01297
X01347
X01397
X01147
X01097
T09
X00975626Y00851152
T11
X01313866Y01337344
T12
X01113866Y01337344
M30
